<svg width="34" height="48" viewBox="0 0 34 48" fill="none" xmlns="http://www.w3.org/2000/svg">
<path d="M23.4375 20.3803H18.75V18.5499C18.75 16.6082 18.0915 14.7459 16.9194 13.3729C15.7473 11.9999 14.1576 11.2285 12.5 11.2285C10.8424 11.2285 9.25268 11.9999 8.08058 13.3729C6.90848 14.7459 6.25 16.6082 6.25 18.5499V20.3803H1.5625C1.1481 20.3803 0.750672 20.5731 0.457646 20.9164C0.16462 21.2597 0 21.7252 0 22.2107V42.3446C0 43.8009 0.49386 45.1976 1.37294 46.2274C2.25201 47.2571 3.4443 47.8357 4.6875 47.8357H20.3125C21.5557 47.8357 22.748 47.2571 23.6271 46.2274C24.5061 45.1976 25 43.8009 25 42.3446V22.2107C25 21.7252 24.8354 21.2597 24.5424 20.9164C24.2493 20.5731 23.8519 20.3803 23.4375 20.3803ZM9.375 18.5499C9.375 17.5791 9.70424 16.6479 10.2903 15.9614C10.8763 15.2749 11.6712 14.8892 12.5 14.8892C13.3288 14.8892 14.1237 15.2749 14.7097 15.9614C15.2958 16.6479 15.625 17.5791 15.625 18.5499V20.3803H9.375V18.5499ZM21.875 42.3446C21.875 42.83 21.7104 43.2956 21.4174 43.6388C21.1243 43.9821 20.7269 44.1749 20.3125 44.1749H4.6875C4.2731 44.1749 3.87567 43.9821 3.58265 43.6388C3.28962 43.2956 3.125 42.83 3.125 42.3446V24.041H6.25V25.8714C6.25 26.3568 6.41462 26.8224 6.70765 27.1656C7.00067 27.5089 7.3981 27.7017 7.8125 27.7017C8.2269 27.7017 8.62433 27.5089 8.91735 27.1656C9.21038 26.8224 9.375 26.3568 9.375 25.8714V24.041H15.625V25.8714C15.625 26.3568 15.7896 26.8224 16.0826 27.1656C16.3757 27.5089 16.7731 27.7017 17.1875 27.7017C17.6019 27.7017 17.9993 27.5089 18.2924 27.1656C18.5854 26.8224 18.75 26.3568 18.75 25.8714V24.041H21.875V42.3446Z" fill="#F31D1D"/>
<ellipse cx="24.6207" cy="10" rx="8.62069" ry="10" fill="#A30F0F" fill-opacity="0.86"/>
<path d="M21.5781 9.7168C21.5781 10.4082 21.6328 11.0254 21.7422 11.5684C21.8477 12.1113 22.0195 12.5723 22.2578 12.9512C22.4922 13.3301 22.8008 13.6191 23.1836 13.8184C23.5664 14.0176 24.0312 14.1172 24.5781 14.1172C25.2656 14.1172 25.8301 13.9434 26.2715 13.5957C26.7129 13.2441 27.0391 12.7402 27.25 12.084C27.4609 11.4238 27.5664 10.6348 27.5664 9.7168C27.5664 8.79102 27.4707 8 27.2793 7.34375C27.084 6.68359 26.7676 6.17773 26.3301 5.82617C25.8926 5.47461 25.3086 5.29883 24.5781 5.29883C23.8945 5.29883 23.332 5.47461 22.8906 5.82617C22.4453 6.17383 22.1152 6.67773 21.9004 7.33789C21.6855 7.99414 21.5781 8.78711 21.5781 9.7168ZM25.7676 9.7168C25.7676 10.3691 25.7324 10.9141 25.6621 11.3516C25.5879 11.7852 25.4648 12.1113 25.293 12.3301C25.1211 12.5488 24.8828 12.6582 24.5781 12.6582C24.2773 12.6582 24.041 12.5508 23.8691 12.3359C23.6934 12.1172 23.5684 11.791 23.4941 11.3574C23.4199 10.9199 23.3828 10.373 23.3828 9.7168C23.3828 9.06445 23.4199 8.51953 23.4941 8.08203C23.5684 7.64453 23.6934 7.31641 23.8691 7.09766C24.041 6.875 24.2773 6.76367 24.5781 6.76367C24.8828 6.76367 25.1211 6.875 25.293 7.09766C25.4648 7.31641 25.5879 7.64453 25.6621 8.08203C25.7324 8.51953 25.7676 9.06445 25.7676 9.7168Z" fill="white"/>
</svg>
