<svg width="43" height="38" viewBox="0 0 43 38" fill="none" xmlns="http://www.w3.org/2000/svg">
<path d="M18 0.228516C16.8917 0.228516 16 1.27304 16 2.57137C16 3.86971 16.8917 4.91423 18 4.91423H19.3333V8.16494C9.96667 9.32661 2.66667 18.6199 2.66667 29.9047H40C40 18.6199 32.7 9.32661 23.3333 8.16494V4.91423H24.6667C25.775 4.91423 26.6667 3.86971 26.6667 2.57137C26.6667 1.27304 25.775 0.228516 24.6667 0.228516H18ZM2 33.0285C0.891667 33.0285 0 34.073 0 35.3714C0 36.6697 0.891667 37.7142 2 37.7142H40.6667C41.775 37.7142 42.6667 36.6697 42.6667 35.3714C42.6667 34.073 41.775 33.0285 40.6667 33.0285H2Z" fill="#F31D1D"/>
</svg>
