<svg width="23" height="34" viewBox="0 0 23 34" fill="none" xmlns="http://www.w3.org/2000/svg">
<path d="M11.5 16.8393C12.2906 16.8393 12.9677 16.5092 13.5312 15.8491C14.0937 15.1902 14.375 14.3976 14.375 13.4714C14.375 12.5453 14.0937 11.7521 13.5312 11.092C12.9677 10.4331 12.2906 10.1036 11.5 10.1036C10.7094 10.1036 10.0328 10.4331 9.47025 11.092C8.90675 11.7521 8.625 12.5453 8.625 13.4714C8.625 14.3976 8.90675 15.1902 9.47025 15.8491C10.0328 16.5092 10.7094 16.8393 11.5 16.8393ZM11.5 33.6786C7.64271 29.8336 4.76196 26.262 2.85775 22.9637C0.952583 19.6666 0 16.6148 0 13.8082C0 9.59839 1.15623 6.24457 3.46869 3.74674C5.78019 1.24891 8.45729 0 11.5 0C14.5427 0 17.2198 1.24891 19.5313 3.74674C21.8438 6.24457 23 9.59839 23 13.8082C23 16.6148 22.0479 19.6666 20.1437 22.9637C18.2385 26.262 15.3573 29.8336 11.5 33.6786Z" fill="#F31D1D"/>
</svg>
