<svg width="33" height="39" viewBox="0 0 33 39" fill="none" xmlns="http://www.w3.org/2000/svg">
<path d="M16.5 20.6408C18.1481 20.6408 19.7288 19.8738 20.8942 18.5086C22.0596 17.1434 22.7143 15.2918 22.7143 13.3612V8.50811C22.7143 6.57744 22.0596 4.72585 20.8942 3.36066C19.7288 1.99547 18.1481 1.22852 16.5 1.22852C14.8519 1.22852 13.2712 1.99547 12.1058 3.36066C10.9404 4.72585 10.2857 6.57744 10.2857 8.50811V13.3612C10.2857 15.2918 10.9404 17.1434 12.1058 18.5086C13.2712 19.8738 14.8519 20.6408 16.5 20.6408ZM16.5 20.6408C23.3647 20.6408 31 25.7001 31 33.4334V35.1999C31 35.8435 30.7818 36.4607 30.3933 36.9158C30.0048 37.3708 29.4779 37.6265 28.9286 37.6265H4.07143C3.52205 37.6265 2.99518 37.3708 2.60671 36.9158C2.21824 36.4607 2 35.8435 2 35.1999V33.4334C2 25.7001 9.63529 20.6408 16.5 20.6408Z" stroke="black" stroke-opacity="0.66" stroke-width="2.07143" stroke-linecap="round" stroke-linejoin="round"/>
</svg>
